<?xml version="1.0" encoding="iso-8859-1"?>
<!-- Uploaded to: SVG Repo, www.svgrepo.com, Generator: SVG Repo Mixer Tools -->
<svg height="800px" width="800px" version="1.1" id="Layer_1" xmlns="http://www.w3.org/2000/svg" xmlns:xlink="http://www.w3.org/1999/xlink" 
	 viewBox="0 0 512 512" xml:space="preserve">
<g>
	<polygon style="fill:#AA8B65;" points="432.3,436.143 377.581,357.383 347.373,345.098 305.567,166.027 177.82,166.027 
		134.809,350.257 92.747,362.551 64.608,437.958 	"/>
	<polygon style="fill:#AA8B65;" points="112.042,431.189 99.983,421.048 36.814,421.048 7.604,446.164 7.604,488.354 
		504.396,488.354 504.396,446.164 473.16,421.048 405.611,421.048 392.716,431.189 	"/>
</g>
<g>
	<polygon style="fill:#836948;" points="282.974,312.273 313.183,324.557 343.129,388.222 419.273,417.601 377.585,357.383 
		347.376,345.098 305.57,166.027 248.831,166.027 	"/>
	<path style="fill:#836948;" d="M473.164,421.048h-33.167l0,0c0,19.043-15.438,34.481-34.481,34.481H7.607v32.825h496.792v-42.19
		L473.164,421.048z"/>
</g>
<path style="fill:#830018;" d="M376.507,26.945l-10.518,7.889c-4.239,3.179-6.486,8.359-5.912,13.626l1.317,12.073
	c0.553,5.068,3.643,9.509,8.203,11.789l11.45,5.724c4.18,2.09,9.095,2.112,13.294,0.061l13.552-6.623
	c6.128-2.994,9.464-9.746,8.12-16.433l-2.967-14.76c-1.057-5.263-4.847-9.559-9.937-11.266l-12.834-4.304
	C385.6,23.156,380.452,23.986,376.507,26.945z"/>
<path style="fill:#610012;" d="M170.164,217.608c10.359,0,18.833,8.475,18.833,18.833c0,0,0,14.859,0,16.638v59.192
	c0,10.359,8.475,18.833,18.833,18.833l0,0c10.359,0,18.833-8.475,18.833-18.833v-57.716v-1.475v-19.133
	c0-10.359,8.475-18.833,18.833-18.833l0,0c10.359,0,18.833,8.475,18.833,18.833v19.133v1.475v19.133
	c0,10.359,8.475,18.833,18.833,18.833l0,0c10.359,0,18.833-8.475,18.833-18.833V257.05v-3.97v-16.638
	c0-9.293,6.827-17.048,15.71-18.551L305.6,166.027H177.854l-12.043,51.581H170.164L170.164,217.608z"/>
<path style="fill:#C70024;" d="M377.255,35.442l-4.694,3.521c-1.892,1.419-2.895,3.731-2.638,6.082l0.588,5.389
	c0.246,2.262,1.626,4.244,3.661,5.262l5.11,2.555c1.866,0.933,4.06,0.943,5.933,0.027l6.049-2.955
	c2.735-1.336,4.225-4.35,3.625-7.334l-1.324-6.588c-0.472-2.349-2.164-4.266-4.435-5.029l-5.728-1.921
	C381.313,33.749,379.016,34.12,377.255,35.442z"/>
<path d="M353.835,61.357c0.836,7.673,5.458,14.316,12.362,17.768l11.449,5.724c3.161,1.581,6.636,2.371,10.111,2.371
	c3.405,0,6.812-0.759,9.923-2.279l13.552-6.623c9.23-4.51,14.261-14.693,12.235-24.763L420.5,38.794
	c-1.59-7.906-7.328-14.411-14.974-16.975l-12.833-4.304c-7.046-2.363-14.804-1.112-20.751,3.348l-10.518,7.889
	c-6.358,4.768-9.771,12.637-8.908,20.535L353.835,61.357z M370.55,40.917l10.518-7.889c1.945-1.459,4.483-1.87,6.79-1.095
	l12.833,4.304c2.502,0.839,4.379,2.968,4.9,5.554l2.967,14.762c0.662,3.295-0.984,6.627-4.004,8.102l-13.551,6.623
	c-2.057,1.005-4.507,0.995-6.557-0.03l-11.449-5.724c-2.26-1.129-3.772-3.302-4.044-5.813l-1.317-12.073
	C367.354,45.051,368.472,42.477,370.55,40.917z"/>
<path d="M274.325,148.969c4.2,0,7.604-3.405,7.604-7.604c0-24.206,19.692-43.898,43.898-43.898c4.2,0,7.604-3.405,7.604-7.604
	c0-4.199-3.404-7.604-7.604-7.604c-32.592,0-59.106,26.515-59.106,59.106C266.721,145.564,270.125,148.969,274.325,148.969z"/>
<path d="M208.107,148.969c4.2,0,7.604-3.405,7.604-7.604c0-60.718,49.398-110.115,110.116-110.115c4.2,0,7.604-3.405,7.604-7.604
	s-3.404-7.604-7.604-7.604c-69.104,0-125.323,56.22-125.323,125.323C200.503,145.564,203.907,148.969,208.107,148.969z"/>
<path d="M290.886,62.655c-2.275-3.529-6.98-4.546-10.511-2.271c-12.274,7.912-22.919,18.599-30.784,30.906
	c-2.261,3.538-1.227,8.24,2.312,10.502c1.268,0.81,2.686,1.197,4.088,1.197c2.508,0,4.964-1.24,6.414-3.51
	C269.1,89,278.164,79.901,288.615,73.164C292.144,70.89,293.161,66.184,290.886,62.655z"/>
<path d="M299.595,58.541c1.032,3.232,4.022,5.295,7.243,5.295c0.765,0,1.544-0.117,2.313-0.361
	c8.493-2.709,17.367-4.083,26.376-4.083c4.2,0,7.604-3.405,7.604-7.604s-3.404-7.604-7.604-7.604
	c-10.58,0-21.008,1.615-30.997,4.802C300.528,50.262,298.319,54.541,299.595,58.541z"/>
<path d="M326.402,421.853l-33.881-14.356c-1.476-0.627-3.112-0.768-4.676-0.408l-34.505,7.963l-13.18-7.222
	c-2.367-1.298-5.245-1.242-7.56,0.145l-47.935,28.713c-3.603,2.157-4.774,6.827-2.616,10.431c1.424,2.38,3.945,3.698,6.529,3.698
	c1.33,0,2.678-0.349,3.9-1.082l44.197-26.473l11.899,6.519c1.635,0.896,3.545,1.161,5.363,0.741l34.922-8.059l31.61,13.394
	c3.865,1.638,8.329-0.167,9.967-4.034C332.075,427.954,330.269,423.491,326.402,421.853z"/>
<path d="M509.161,440.238l-31.236-25.116c-1.352-1.086-3.032-1.678-4.765-1.678h-47.52l-37.831-60.186
	c-0.848-1.349-2.097-2.397-3.573-2.997l-26.562-10.803l-40.912-175.239c-0.803-3.441-3.871-5.875-7.405-5.875H248.82v-12.245
	c0-7.697,1.008-15.33,2.995-22.684c1.096-4.054-1.303-8.229-5.357-9.324c-4.049-1.096-8.227,1.302-9.323,5.357
	c-2.337,8.647-3.522,17.615-3.522,26.651v12.245H181.61c-3.533,0-6.602,2.434-7.405,5.875l-42.001,179.906l-37.8,11.049
	c-2.008,0.587-3.687,1.977-4.638,3.842l-27.782,54.428H36.814c-1.819,0-3.578,0.653-4.958,1.838l-29.21,25.116
	C0.966,441.843,0,443.948,0,446.164v42.191c0,4.199,3.404,7.604,7.604,7.604h496.792c4.2,0,7.604-3.405,7.604-7.604v-42.191
	C512,443.86,510.957,441.681,509.161,440.238z M187.643,173.552h115.68l8.85,37.905c-10.354,3.585-17.81,13.428-17.81,24.985v37.246
	c0,6.192-5.038,11.23-11.23,11.23s-11.23-5.038-11.23-11.23v-39.741c0-14.577-11.859-26.437-26.437-26.437
	s-26.437,11.86-26.437,26.437v78.324c0,6.193-5.038,11.231-11.231,11.231c-6.192,0-11.23-5.038-11.23-11.231v-75.83
	c0-11.544-7.44-21.377-17.775-24.972L187.643,173.552z M496.792,480.75H15.208v-31.096l24.426-21.002h57.577l9.938,8.357
	c3.214,2.704,8.011,2.289,10.713-0.926c2.703-3.214,2.288-8.011-0.926-10.713l-12.06-10.142c-1.371-1.153-3.103-1.784-4.894-1.784
	H79.057l22.761-44.593l38.914-11.375c2.633-0.77,4.648-2.898,5.271-5.57l29.283-125.429c3.601,1.873,6.071,5.632,6.071,9.964v75.83
	c0,14.578,11.859,26.438,26.437,26.438s26.438-11.86,26.438-26.438v-78.324c0-6.192,5.038-11.23,11.23-11.23
	c6.192,0,11.23,5.038,11.23,11.23v39.741c0,14.577,11.859,26.437,26.437,26.437c14.578,0,26.437-11.86,26.437-26.437v-37.246
	c0-4.345,2.486-8.115,6.105-9.98l28.083,120.288c0.562,2.404,2.255,4.385,4.541,5.315l27.939,11.362l31.441,50.018h-2.066
	c-1.705,0-3.36,0.573-4.701,1.626l-12.896,10.142c-3.301,2.596-3.872,7.377-1.276,10.678c2.598,3.301,7.375,3.873,10.678,1.276
	l10.827-8.515h62.239l26.312,21.155V480.75z"/>
</svg>